<svg xmlns="http://www.w3.org/2000/svg" width="96" height="96" viewBox="0 0 96 96" shape-rendering="geometricPrecision" text-rendering="optimizeLegibility" stroke-linecap="round" stroke-linejoin="round">
<defs>
  <marker id="arrow" markerWidth="8" markerHeight="8" refX="4" refY="4" orient="auto-start-reverse">
    <path d="M0,0 L8,4 L0,8 z" fill="#2d3640"/>
  </marker>
</defs>
<rect x="6" y="6" width="84" height="84" rx="12" fill="#ffffff" stroke="#e6e9ee" stroke-width="1"/>
<rect x="6" y="6" width="84" height="16" rx="12" fill="#3498db"/>
<path d="M32,44 C28,44 28,36 32,36 H36 C32,36 32,44 36,44 32,44 32,52 36,52 H32 C28,52 28,44 32,44" stroke="#2d3640" stroke-width="2.5" fill="none" />
<path d="M60,44 C64,44 64,36 60,36 H56 C60,36 60,44 56,44 60,44 60,52 56,52 H60 C64,52 64,44 60,44" stroke="#2d3640" stroke-width="2.5" fill="none" />
</svg>
