<svg xmlns="http://www.w3.org/2000/svg" width="96" height="96" viewBox="0 0 96 96" shape-rendering="geometricPrecision" text-rendering="optimizeLegibility" stroke-linecap="round" stroke-linejoin="round">
<defs>
  <marker id="arrow" markerWidth="8" markerHeight="8" refX="4" refY="4" orient="auto-start-reverse">
    <path d="M0,0 L8,4 L0,8 z" fill="#2d3640"/>
  </marker>
</defs>
<rect x="6" y="6" width="84" height="84" rx="12" fill="#ffffff" stroke="#e6e9ee" stroke-width="1"/>
<rect x="6" y="6" width="84" height="16" rx="12" fill="#3498db"/>
<rect x="26" y="34" width="40" height="36" rx="4" stroke="#2d3640" stroke-width="2.5" fill="none" />
<line x1="30" y1="42" x2="62" y2="42" stroke="#2d3640" stroke-width="2.5" fill="none" />
<line x1="30" y1="50" x2="54" y2="50" stroke="#2d3640" stroke-width="2.5" fill="none" />
<circle cx="60" cy="60" r="6" stroke="#2d3640" stroke-width="2.5" fill="none" />
<path d="M60,54 v-3 m0,18 v-3 m6,-6 h3 m-18,0 h3 m9,-4 l2,-2 m-2,10 l2,2 m-10,-2 l-2,2 m2,-10 l-2,-2" stroke="#2d3640" stroke-width="2.5" fill="none" />
</svg>
