<svg xmlns="http://www.w3.org/2000/svg" width="96" height="96" viewBox="0 0 96 96" shape-rendering="geometricPrecision" text-rendering="optimizeLegibility" stroke-linecap="round" stroke-linejoin="round">
<defs>
  <marker id="arrow" markerWidth="8" markerHeight="8" refX="4" refY="4" orient="auto-start-reverse">
    <path d="M0,0 L8,4 L0,8 z" fill="#2d3640"/>
  </marker>
</defs>
<rect x="6" y="6" width="84" height="84" rx="12" fill="#ffffff" stroke="#e6e9ee" stroke-width="1"/>
<rect x="6" y="6" width="84" height="16" rx="12" fill="#3498db"/>
<circle cx="48" cy="52" r="12" stroke="#2d3640" stroke-width="2.5" fill="none" />
<rect x="46" y="30" width="4" height="8" rx="1" fill="#2d3640" transform="rotate(0,48,52) translate(0,-22)"/>
<rect x="46" y="30" width="4" height="8" rx="1" fill="#2d3640" transform="rotate(60,48,52) translate(0,-22)"/>
<rect x="46" y="30" width="4" height="8" rx="1" fill="#2d3640" transform="rotate(120,48,52) translate(0,-22)"/>
<rect x="46" y="30" width="4" height="8" rx="1" fill="#2d3640" transform="rotate(180,48,52) translate(0,-22)"/>
<rect x="46" y="30" width="4" height="8" rx="1" fill="#2d3640" transform="rotate(240,48,52) translate(0,-22)"/>
<rect x="46" y="30" width="4" height="8" rx="1" fill="#2d3640" transform="rotate(300,48,52) translate(0,-22)"/>
<circle cx="48" cy="52" r="3" fill="#2d3640" />
</svg>
